<svg width="19" height="18" viewBox="0 0 19 18" fill="none" xmlns="http://www.w3.org/2000/svg">
<path d="M1 12C1.55228 12 2 12.4477 2 13V14C2 15.054 2.95 16 4 16H6C6.55228 16 7 16.4477 7 17C7 17.5523 6.55228 18 6 18H4C2.93913 18 1.92172 17.5786 1.17157 16.8284C0.421427 16.0783 0 15.0609 0 14V13C0 12.4477 0.447715 12 1 12ZM14.323 7C14.7319 7 15.0996 7.24895 15.2514 7.62861L18.8514 16.6286C19.1142 17.2855 18.6296 18 17.9222 18C17.5134 18 17.1454 17.7512 16.9935 17.3717L16.044 15H11.954L11.0063 17.3712C10.8545 17.7509 10.4868 18 10.0778 18C9.37042 18 8.8867 17.2856 9.14936 16.6288L12.7486 7.62868C12.9004 7.24899 13.2682 7 13.6771 7H14.323ZM14 9.885L12.753 13H15.245L14 9.885ZM0 1C0 0.447715 0.447715 0 1 0H6C6.57904 0.0002061 7.14564 0.167979 7.63144 0.483072C8.11724 0.798166 8.50147 1.24711 8.73776 1.77574C8.97406 2.30437 9.05232 2.89009 8.96311 3.46221C8.8739 4.03433 8.62102 4.56841 8.235 5C8.62102 5.43159 8.8739 5.96567 8.96311 6.53779C9.05232 7.10991 8.97406 7.69563 8.73776 8.22426C8.50147 8.75288 8.11724 9.20183 7.63144 9.51693C7.14564 9.83202 6.57904 9.99979 6 10H1C0.447715 10 0 9.55229 0 9V1ZM6 6H2V8H6C6.26522 8 6.51957 7.89464 6.70711 7.70711C6.89464 7.51957 7 7.26522 7 7C7 6.73478 6.89464 6.48043 6.70711 6.29289C6.51957 6.10536 6.26522 6 6 6ZM14 0C15.0609 0 16.0783 0.421427 16.8284 1.17157C17.5786 1.92172 18 2.93913 18 4V5C18 5.55228 17.5523 6 17 6C16.4477 6 16 5.55228 16 5V4C16 3.46957 15.7893 2.96086 15.4142 2.58579C15.0391 2.21071 14.5304 2 14 2H12C11.4477 2 11 1.55228 11 1C11 0.447715 11.4477 0 12 0H14ZM6 2H2V4H6C6.26522 4 6.51957 3.89464 6.70711 3.70711C6.89464 3.51957 7 3.26522 7 3C7 2.73478 6.89464 2.48043 6.70711 2.29289C6.51957 2.10536 6.26522 2 6 2Z" fill="black"/>
</svg>
