<svg width="264" height="57" viewBox="0 0 264 57" fill="none" xmlns="http://www.w3.org/2000/svg">
<path d="M2.89785 56.8782C0.965949 56.8782 0 55.8874 0 53.9057V27.6935C0 25.7419 0.981041 24.7661 2.94313 24.7661H13.8553C17.3569 24.7661 20.0585 25.6368 21.9602 27.3783C23.862 29.1197 24.8128 31.5518 24.8128 34.6744C24.8128 37.7971 23.862 40.2442 21.9602 42.0156C20.0585 43.7571 17.3569 44.6279 13.8553 44.6279H5.79569V53.9057C5.79569 55.8874 4.82974 56.8782 2.89785 56.8782ZM5.79569 40.079H12.9498C17.1154 40.079 19.1982 38.2775 19.1982 34.6744C19.1982 31.1014 17.1154 29.3149 12.9498 29.3149H5.79569V40.079Z" fill="white"/>
<path d="M32.6163 56.5179C30.5637 56.5179 29.5374 55.4971 29.5374 53.4553V27.8286C29.5374 25.7869 30.5637 24.7661 32.6163 24.7661H48.7809C50.3506 24.7661 51.1354 25.5167 51.1354 27.018C51.1354 28.5793 50.3506 29.3599 48.7809 29.3599H35.1067V38.0973H47.7848C49.3544 38.0973 50.1393 38.863 50.1393 40.3943C50.1393 41.9256 49.3544 42.6912 47.7848 42.6912H35.1067V51.924H48.7809C50.3506 51.924 51.1354 52.6897 51.1354 54.221C51.1354 55.7523 50.3506 56.5179 48.7809 56.5179H32.6163Z" fill="white"/>
<path d="M56.2965 56.8782C55.24 56.8782 54.4853 56.5179 54.0325 55.7973C53.5797 55.0767 53.5948 54.206 54.0778 53.1851L66.0314 26.8378C66.4238 25.9671 66.8917 25.3516 67.4351 24.9912C68.0086 24.6009 68.6576 24.4057 69.3821 24.4057C70.0763 24.4057 70.6952 24.6009 71.2385 24.9912C71.812 25.3516 72.295 25.9671 72.6874 26.8378L84.6863 53.1851C85.1693 54.236 85.1995 55.1217 84.7769 55.8423C84.3543 56.5329 83.6298 56.8782 82.6035 56.8782C81.7583 56.8782 81.0942 56.6831 80.6112 56.2927C80.1584 55.8724 79.7509 55.2418 79.3887 54.4011L77.1247 49.1767H61.5488L59.3302 54.4011C58.9377 55.2719 58.5302 55.9024 58.1076 56.2927C57.685 56.6831 57.0813 56.8782 56.2965 56.8782ZM69.2915 31.0264L63.5411 44.5828H75.1325L69.3821 31.0264H69.2915Z" fill="white"/>
<path d="M92.5712 56.8782C90.6393 56.8782 89.6734 55.8874 89.6734 53.9057V27.3332C89.6734 25.3816 90.6393 24.4057 92.5712 24.4057C94.5031 24.4057 95.4691 25.3816 95.4691 27.3332V38.8179H95.5596L108.555 25.847C109.038 25.3666 109.521 25.0063 110.004 24.7661C110.487 24.5259 111.03 24.4057 111.634 24.4057C112.509 24.4057 113.128 24.6309 113.49 25.0813C113.882 25.5317 114.033 26.0571 113.943 26.6577C113.882 27.2582 113.596 27.8136 113.083 28.3241L101.174 40.034L113.716 52.6897C114.35 53.2902 114.682 53.9207 114.713 54.5813C114.743 55.2418 114.531 55.7973 114.079 56.2477C113.656 56.6681 113.022 56.8782 112.177 56.8782C111.452 56.8782 110.864 56.7281 110.411 56.4278C109.988 56.1276 109.49 55.6922 108.917 55.1217L95.5596 41.8355H95.4691V53.9057C95.4691 55.8874 94.5031 56.8782 92.5712 56.8782Z" fill="white"/>
<path d="M129.727 56.9683C127.705 56.9683 125.727 56.7431 123.796 56.2927C121.894 55.8424 120.234 55.1668 118.815 54.266C118.121 53.8156 117.698 53.2602 117.547 52.5996C117.396 51.939 117.441 51.3235 117.683 50.753C117.955 50.1525 118.362 49.7472 118.905 49.537C119.479 49.2968 120.128 49.4019 120.852 49.8523C122.181 50.6329 123.584 51.2034 125.063 51.5637C126.542 51.924 128.097 52.1042 129.727 52.1042C132.112 52.1042 133.847 51.7139 134.934 50.9332C136.021 50.1225 136.564 49.0866 136.564 47.8256C136.564 46.7747 136.172 45.949 135.387 45.3485C134.632 44.748 133.319 44.2525 131.448 43.8622L126.467 42.8263C120.792 41.6253 117.955 38.7279 117.955 34.134C117.955 32.1523 118.483 30.4258 119.539 28.9546C120.596 27.4834 122.06 26.3424 123.931 25.5317C125.803 24.721 127.961 24.3157 130.406 24.3157C132.217 24.3157 133.938 24.5409 135.568 24.9912C137.198 25.4416 138.662 26.1022 139.96 26.9729C140.564 27.3933 140.926 27.9187 141.047 28.5493C141.168 29.1498 141.092 29.7202 140.82 30.2607C140.549 30.7711 140.111 31.1314 139.507 31.3416C138.934 31.5218 138.255 31.3867 137.47 30.9363C136.353 30.3057 135.221 29.8554 134.074 29.5851C132.927 29.3149 131.689 29.1798 130.361 29.1798C128.278 29.1798 126.648 29.6152 125.471 30.4859C124.294 31.3566 123.705 32.4976 123.705 33.9088C123.705 34.9897 124.067 35.8604 124.792 36.521C125.516 37.1515 126.754 37.647 128.505 38.0073L133.44 39.0431C136.428 39.6737 138.647 40.6645 140.096 42.0156C141.575 43.3668 142.315 45.1683 142.315 47.4202C142.315 49.3118 141.801 50.9782 140.775 52.4195C139.749 53.8607 138.285 54.9866 136.383 55.7973C134.512 56.578 132.293 56.9683 129.727 56.9683Z" fill="white"/>
<path d="M161.597 56.9683C158.518 56.9683 155.816 56.2927 153.492 54.9416C151.198 53.5904 149.417 51.6988 148.149 49.2668C146.881 46.8047 146.248 43.9223 146.248 40.6195C146.248 37.2866 146.881 34.4042 148.149 31.9722C149.417 29.5401 151.198 27.6635 153.492 26.3424C155.786 24.9912 158.488 24.3157 161.597 24.3157C164.706 24.3157 167.408 24.9912 169.702 26.3424C171.996 27.6635 173.777 29.5401 175.045 31.9722C176.313 34.4042 176.947 37.2716 176.947 40.5744C176.947 43.9073 176.313 46.8047 175.045 49.2668C173.777 51.6988 171.996 53.5904 169.702 54.9416C167.408 56.2927 164.706 56.9683 161.597 56.9683ZM161.597 52.0141C164.525 52.0141 166.804 51.0083 168.434 48.9966C170.064 46.9849 170.879 44.1925 170.879 40.6195C170.879 37.0164 170.064 34.2241 168.434 32.2424C166.834 30.2607 164.555 29.2699 161.597 29.2699C158.669 29.2699 156.39 30.2607 154.76 32.2424C153.13 34.2241 152.315 37.0164 152.315 40.6195C152.315 44.1925 153.13 46.9849 154.76 48.9966C156.39 51.0083 158.669 52.0141 161.597 52.0141Z" fill="white"/>
<path d="M185.828 56.8782C183.836 56.8782 182.84 55.8574 182.84 53.8156V27.8286C182.84 25.7869 183.866 24.7661 185.919 24.7661H201.721C203.291 24.7661 204.076 25.5167 204.076 27.018C204.076 28.5793 203.291 29.3599 201.721 29.3599H188.636V38.3225H200.77C202.34 38.3225 203.125 39.0732 203.125 40.5744C203.125 42.1358 202.34 42.9164 200.77 42.9164H188.636V53.8156C188.636 55.8574 187.7 56.8782 185.828 56.8782Z" fill="white"/>
<path d="M219.214 56.8782C217.282 56.8782 216.316 55.8874 216.316 53.9057V29.5851H207.487C205.827 29.5851 204.996 28.7744 204.996 27.1531C204.996 25.5617 205.827 24.7661 207.487 24.7661H230.941C232.601 24.7661 233.432 25.5617 233.432 27.1531C233.432 28.7744 232.601 29.5851 230.941 29.5851H222.112V53.9057C222.112 55.8874 221.146 56.8782 219.214 56.8782Z" fill="white"/>
<path d="M264 9.37895C264 4.1991 259.801 0 254.621 0C249.441 0 245.242 4.1991 245.242 9.37895C245.242 14.5588 249.441 18.7579 254.621 18.7579C259.801 18.7579 264 14.5588 264 9.37895Z" fill="url(#paint0_linear_3_2364)"/>
<defs>
<linearGradient id="paint0_linear_3_2364" x1="264" y1="0" x2="245.242" y2="18.7579" gradientUnits="userSpaceOnUse">
<stop stop-color="#FA2B56"/>
<stop offset="1" stop-color="#F91C3D"/>
</linearGradient>
</defs>
</svg>
