<svg width="20" height="20" viewBox="0 0 20 20" fill="none" xmlns="http://www.w3.org/2000/svg">
<g clip-path="url(#clip0_3_3469)">
<path d="M9.16669 9.16669V5.00002C9.16669 4.53978 9.53978 4.16669 10 4.16669C10.4603 4.16669 10.8334 4.53978 10.8334 5.00002V9.16669H15C15.4603 9.16669 15.8334 9.53978 15.8334 10C15.8334 10.4603 15.4603 10.8334 15 10.8334H10.8334V15C10.8334 15.4603 10.4603 15.8334 10 15.8334C9.53978 15.8334 9.16669 15.4603 9.16669 15V10.8334H5.00002C4.53978 10.8334 4.16669 10.4603 4.16669 10C4.16669 9.53978 4.53978 9.16669 5.00002 9.16669H9.16669Z" fill="white"/>
</g>
<defs>
<clipPath id="clip0_3_3469">
<rect width="20" height="20" fill="white"/>
</clipPath>
</defs>
</svg>
