<svg width="18.399414" height="20.000000" viewBox="0 0 18.3994 20" fill="none" xmlns="http://www.w3.org/2000/svg" xmlns:xlink="http://www.w3.org/1999/xlink">
	<desc>
			Created with Pixso.
	</desc>
	<defs/>
	<path id="Vector" d="M2.39 17C2.39 16.44 2.84 16 3.39 16C3.95 16 4.39 16.44 4.39 17L4.39 18L16.39 18L16.39 2L4.39 2L4.39 3C4.39 3.55 3.95 4 3.39 4C2.84 4 2.39 3.55 2.39 3L2.39 1C2.39 0.73 2.5 0.48 2.69 0.29C2.87 0.1 3.13 0 3.39 0L17.39 0C17.66 0 17.91 0.1 18.1 0.29C18.29 0.48 18.39 0.73 18.39 1L18.39 19C18.39 19.26 18.29 19.51 18.1 19.7C17.91 19.89 17.66 20 17.39 20L3.39 20C3.13 20 2.87 19.89 2.69 19.7C2.5 19.51 2.39 19.26 2.39 19L2.39 17ZM4.39 9L10.39 9C10.95 9 11.39 9.44 11.39 10C11.39 10.55 10.95 11 10.39 11L4.39 11L4.39 11.91C4.39 12.75 3.42 13.22 2.77 12.7L0.37 10.78C-0.13 10.38 -0.13 9.61 0.37 9.21L2.77 7.29C3.42 6.77 4.39 7.24 4.39 8.08L4.39 9Z" fill="#3772FF" fill-opacity="1.000000" fill-rule="nonzero"/>
</svg>
