<svg width="15.000000" height="15.000000" viewBox="0 0 15 15" fill="none" xmlns="http://www.w3.org/2000/svg" xmlns:xlink="http://www.w3.org/1999/xlink">
	<desc>
			Created with Pixso.
	</desc>
	<defs/>
	<path id="Vector" d="M0.33 12.83L13.66 12.83C14.12 12.83 14.5 13.2 14.5 13.66C14.5 14.12 14.12 14.5 13.66 14.5L0.33 14.5C-0.13 14.5 -0.5 14.12 -0.5 13.66C-0.5 13.2 -0.13 12.83 0.33 12.83ZM7.83 1.85L7.83 10.33C7.83 10.79 7.46 11.16 7 11.16C6.53 11.16 6.16 10.79 6.16 10.33L6.16 1.85L1.69 6.32C1.37 6.65 0.84 6.65 0.51 6.32C0.19 6 0.19 5.47 0.51 5.14L6.29 -0.63C6.68 -1.02 7.31 -1.02 7.7 -0.63L13.48 5.14C13.8 5.47 13.8 6 13.48 6.32C13.15 6.65 12.62 6.65 12.3 6.32L7.83 1.85L7.83 1.85Z" fill="#3772FF" fill-opacity="1.000000" fill-rule="nonzero"/>
</svg>
